<?xml version="1.0" encoding="utf-8"?><svg xmlns="http://www.w3.org/2000/svg" xmlns:xlink="http://www.w3.org/1999/xlink"><symbol viewBox="0 0 408 408" id="bank" xmlns="http://www.w3.org/2000/svg"><path d="M383.2 91.15L206 26.35c-1.6-.4-2.8-.4-4.4 0L25.2 91.15c-2.8 1.2-4.8 4-4 7.2.4 2.8 2.8 5.2 6 5.2h353.6c3.2 0 5.6-2.4 6.4-5.2.4-3.2-1.2-6-4-7.2zm-319.6-.8L204 39.15l140.4 51.2H63.6zm338 252.4h-18v-20c0-3.6-2.8-6.4-6.4-6.4h-10.4v-19.6c0-3.6-2.8-6.4-6.4-6.4h-4v-155.2h16c3.6 0 6.4-2.8 6.4-6.4 0-3.6-2.8-6.4-6.4-6.4H35.6c-3.6 0-6.4 2.8-6.4 6.4 0 3.6 2.8 6.4 6.4 6.4h16v155.2h-4c-3.6 0-6.4 2.8-6.4 6.4v19.6H30.8c-3.6 0-6.4 2.8-6.4 6.4v20h-18c-3.6 0-6.4 2.8-6.4 6.4v26.4c0 3.6 2.8 6.4 6.4 6.4h395.2c3.6 0 6.4-2.8 6.4-6.4v-26.4c0-3.6-2.8-6.4-6.4-6.4zm-77.2-207.6h18.8v155.2h-18.8v-155.2zm-10.4 168h40v13.2h-40v-13.2zm-87.6-168h85.2v155.2h-4c-3.6 0-6.4 2.8-6.4 6.4v19.6h-64.4v-19.6c0-3.6-2.8-6.4-6.4-6.4h-4v-155.2zm-31.6 0h18.8v155.2h-18.8v-155.2zm-10.8 168h40v13.2h-40v-13.2zm-87.6-168h85.2v155.2h-4c-3.6 0-6.4 2.8-6.4 6.4v19.6h-64.4v-19.6c0-3.6-2.8-6.4-6.4-6.4h-4v-155.2zm-31.6 0h18.8v155.2H64.8v-155.2zm-10.8 168h40v13.2H54v-13.2zm-16.8 26h333.6v13.6H37.2v-13.6zm358 40H12.8v-13.6h382.4v13.6z"/></symbol><symbol viewBox="0 0 424.038 424.038" id="bars" xmlns="http://www.w3.org/2000/svg"><path d="M352.4 34.019c-32.4 0-58 26-58 58.4s26 58 58 58 58.4-26 58.4-58.4-26-58-58.4-58zm0 103.6c-25.2 0-45.6-20.4-45.6-45.6s20.8-45.2 45.6-45.2c25.2 0 45.6 20.4 45.6 45.6 0 25.2-20.4 45.2-45.6 45.2z"/><path d="M370.8 101.219c-.4-1.2-.4-2-1.2-3.2-.4-.8-.8-2-1.6-2.8-.8-.8-1.2-1.6-2-2.4s-1.6-1.6-2.8-2c-.8-.8-2-1.2-2.8-1.6-1.2-.4-2-1.2-3.2-1.6-1.2-.4-2.4-.8-3.2-1.2-.4 0-1.2-.4-1.6-.8-.4-.4-1.2-.4-1.6-.8-.4-.4-1.2-.4-1.6-.8l-1.2-1.2c-.4-.4-.8-.8-.8-1.6-.4-.4-.4-1.2-.4-1.6v-2c0-.4.4-1.2.4-1.6.4-.4.4-1.2.8-1.6l1.2-1.2c.4-.4 1.2-.8 2-.8.8-.4 1.2-.4 2-.4h2.4c.8 0 1.2 0 2 .4.8 0 1.6.4 2 .4.4 0 1.2.4 1.6.4.8 0 1.2.4 1.6.4l2 .8.4-2.4.8-6.4v-1.6l-1.6-.4c-.4 0-1.2-.4-1.6-.4-.4 0-.8-.4-1.6-.4-.4 0-1.2-.4-2-.4s-1.2-.4-2-.4h-.4v-7.6h-9.6v8h-.4c-1.2.4-2.4.8-3.6 1.6-1.2.4-2 1.2-2.8 2s-1.6 1.6-2.4 2.8c-.8.8-1.2 2-1.6 3.2l-1.2 3.6c-.4 1.2-.4 2.8-.4 4s0 2 .4 3.2c.4 1.2.4 2 1.2 3.2.4.8 1.2 2 1.6 2.8.8.8 1.2 1.6 2 2.4.8.8 1.6 1.6 2.8 2 .8.8 2 1.2 2.8 1.6 1.2.4 2.4 1.2 3.2 1.6 1.2.4 2.4.8 3.2 1.2.4 0 1.2.4 1.6.8.4.4 1.2.4 1.6.8.4.4.8.8 1.2.8l1.2 1.2c.4.4.4.8.8 1.6 0 .4.4 1.2.4 2v2c0 .4-.4 1.2-.8 1.6l-1.2 1.2c-.4.4-.8.8-1.6 1.2-.4.4-1.2.4-1.6.8-.4 0-1.2.4-2 .4h-5.2c-.8 0-1.6-.4-2-.4-.8 0-1.6-.4-2.4-.8-.8-.4-1.6-.4-2.4-.8-.4 0-.8-.4-1.2-.4-.4 0-.8-.4-1.2-.4l-2.4-1.2-.4 2.8-.8 7.2v1.2l1.2.4c1.6-.4 2.4 0 3.6.4.8.4 2 .8 2.8.8.8.4 2 .4 3.2.8 1.2.4 2 .4 3.2.4h.8v8h9.6v-8.4h.4c1.2-.4 2.4-.8 3.6-1.6 1.2-.4 2-1.2 3.2-2 .8-.8 1.6-1.6 2.4-2.8.8-.8 1.2-2 2-3.2l1.2-3.6c.4-1.2.4-2.4.4-4 0-1.2 0-2-.4-3.2zm-46.4 56.8c-2-2.8-6.4-3.2-9.2-1.2l-64.8 51.6-83.6-34.8c-2-.8-4.4-.4-6 .8l-89.6 64c-2.8 2-3.6 6-1.6 8.8 1.2 2 3.2 2.8 5.2 2.8 1.2 0 2.4-.4 3.6-1.2l86.8-62 84 34.8c2 .8 4.8.4 6.4-.8l67.6-53.6c2.8-2 3.2-6.4 1.2-9.2z"/><path d="M418 377.219h-29.6v-185.2c0-3.6-2.8-6.4-6.4-6.4h-58.8c-3.6 0-6.4 2.8-6.4 6.4v185.2h-21.6v-121.2c0-3.6-2.8-6.4-6.4-6.4h-59.2c-3.6 0-6.4 2.8-6.4 6.4v121.2h-21.6v-130.8c0-3.6-2.8-6.4-6.4-6.4h-58.8c-3.6 0-6.4 2.8-6.4 6.4v130.8h-21.6v-93.2c0-3.6-2.8-6.4-6.4-6.4H42.8c-3.6 0-6.4 2.8-6.4 6.4v93.2h-30c-3.6 0-6.4 2.8-6.4 6.4 0 3.6 2.8 6.4 6.4 6.4h411.2c3.6 0 6.4-2.8 6.4-6.4.4-3.6-2.4-6.4-6-6.4zm-322.8 0h-46v-86.8h46v86.8zm93.6 0h-46v-124.4h46v124.4zm93.2 0h-46v-114.8h46v114.8zm93.6 0h-46v-178.8h46v178.8z"/></symbol><symbol viewBox="0 0 328.904 328.904" id="chart" xmlns="http://www.w3.org/2000/svg"><path d="M287.2 170.702c-52.4.8-116.8 3.6-135.2 4.4l-34-130.8c-.8-3.6-4.4-5.6-8-4.4-64.8 16.4-110 74.8-110 141.6 0 80.8 66 146.8 146.8 146.8s146.8-66 146.8-146.8v-4.8c0-3.2-3.2-6-6.4-6zm-140.4 144.8c-74 0-134-60-134-134 0-58.8 38.4-110.8 94.4-128l33.6 129.6c.8 2.8 3.6 4.8 6.4 4.8.8 0 73.2-3.6 133.6-4.4-.8 73.2-60.8 132-134 132z"/><path d="M328.8 150.702c-1.2-64.4-46.4-121.2-109.2-137.2-3.6-.8-6.8 1.2-8 4.4l-35.2 136c-.4 2 0 4 1.2 5.6 1.2 1.6 3.2 2.4 4.8 2.4h.4c.8 0 78.8-3.6 140-4.4 1.6 0 3.2-.8 4.4-2 1.2-1.2 2-2.8 1.6-4.8zm-137.6-2l31.2-121.2c52 16 89.6 62.8 94 117.2-48.4.8-104 3.2-125.2 4zm-36.4 0c.8 2.8 3.2 4.8 6.4 4.8s5.6-2 6.4-4.8l35.2-136c.4-1.6 0-3.2-.8-4.8-.8-1.6-2.4-2.4-4-2.8-24-6-49.6-6-73.6 0-1.6.4-3.2 1.6-4 2.8-.8 1.6-1.2 3.2-.8 4.8l35.2 136zm33.2-132.8l-27.2 105.6-27.2-105.6c17.6-4 36.8-4 54.4 0zm-82.8 168.8c-.4-1.2-1.2-2.4-2-3.2-.8-1.2-1.6-2-2.8-2.8-1.2-.8-2-2-3.2-2.8l-3.6-2.4c-1.2-.8-2.8-1.6-4-2-1.6-.8-2.8-1.2-4.4-1.6-.8-.4-1.6-.4-2-.8-.8-.4-1.6-.8-2-.8-.8-.4-1.2-.8-2-1.2-.4-.4-1.2-.8-1.6-1.6-.4-.4-.8-1.2-1.2-2-.4-.8-.4-1.6-.4-2.4v-2.4c0-.8.4-1.6.8-2 .4-.8.8-1.2 1.2-2 .4-.8 1.2-1.2 1.6-1.6l2.4-1.2c.8-.4 1.6-.4 2.8-.4H88c.8 0 1.6 0 2.8.4.8 0 2 .4 2.8.4s1.2.4 2 .4c.8.4 1.6.4 2 .4l2.8.8.4-2.8 1.2-8.4.4-2-3.2-.4c-.8-.4-1.2-.4-2-.4-.4 0-1.2-.4-2-.4s-1.6-.4-2.4-.4-1.6-.4-2.4-.4h-.8v-10.4h-12v10.4h-.8c-1.6.4-3.2 1.2-4.4 2-1.2.8-2.8 1.6-4 2.8-1.2 1.2-2.4 2.4-3.2 3.6s-1.6 2.8-2.4 4c-.8 1.6-1.2 3.2-1.6 4.8-.4 1.6-.4 3.2-.4 5.2 0 1.2 0 2.8.4 4 .4 1.2.8 2.8 1.2 4 .4 1.2 1.2 2.4 2 3.2.8 1.2 1.6 2 2.8 2.8s2.4 1.6 3.2 2.4c1.2.8 2.4 1.6 4 2.4 1.6.8 2.8 1.2 4.4 2 1.6.8 2.8 1.2 4.4 1.6.8.4 1.6.4 2 .8.8.4 1.2.8 2 1.2s1.2.8 1.6 1.2c.4.4.8.8 1.2 1.6.4.4.8 1.2.8 2 .4.8.4 1.6.4 2.4v2.4c0 .8-.4 1.6-.8 2-.4.8-.8 1.2-1.6 1.6-.4.4-1.2.8-2 1.2s-1.2.8-2 .8c-.8.4-1.6.4-2.4.4h-4c-.8 0-2 0-2.8-.4-.8 0-2-.4-2.8-.4-1.2-.4-2.4-.4-3.2-.8-1.2-.4-2.4-.8-3.2-1.2-.4 0-.8-.4-1.2-.4-.4-.4-.8-.4-1.2-.8l-3.2-1.6-.4 3.2v9.6l-.4 1.6 1.6.8c1.2.4 2.4 1.2 3.6 1.6l3.6 1.2c1.2.4 2.4.8 4 .8 1.2.4 2.8.4 4 .8h.8v10h12v-10.4h.8c1.6-.4 3.2-1.2 4.8-2 1.6-.8 2.8-1.6 4-2.8s2.4-2.4 3.2-3.6 1.6-2.8 2.4-4c.8-1.6 1.2-3.2 1.6-4.8.4-1.6.4-3.2.4-4.8 0-1.6 0-2.8-.4-4-.4-1.2-.8-2.8-1.2-4z"/></symbol><symbol viewBox="0 0 296.4 296.4" id="coins" xmlns="http://www.w3.org/2000/svg"><path d="M152.6 146c40.4 0 72.8-32.8 72.8-72.8S192.6 0 152.6 0 79.8 32.8 79.8 72.8s32.4 73.2 72.8 73.2zm0-133.2c33.2 0 60 26.8 60 60s-26.8 60-60 60-60-26.8-60-60 26.8-60 60-60zm81.6 166.8H229V160c0-3.6-2.8-6.4-6.4-6.4H91c-3.6 0-6.4 2.8-6.4 6.4v26c0 3.6 2.8 6.4 6.4 6.4h5.2v13.2h-10c-3.6 0-6.4 2.8-6.4 6.4v19.6H62.2c-3.6 0-6.4 2.8-6.4 6.4v26c0 3.6 2.8 6.4 6.4 6.4h7.2V290c0 3.6 2.8 6.4 6.4 6.4h131.6c3.6 0 6.4-2.8 6.4-6.4v-26c0-3.6-2.8-6.4-6.4-6.4h-7.2v-13.2h17.6c3.6 0 6.4-2.8 6.4-6.4v-19.6h10c3.6 0 6.4-2.8 6.4-6.4v-26c0-3.2-2.8-6.4-6.4-6.4zM97.4 166.8h118.8V180H97.4v-13.2zm-28.8 90.4V244h118.8v13.2H68.6zM201 270v13.2H82.2V270H201zm10.4-38.4H92.6v-13.2h118.8v13.2zm16.4-26H109v-13.2h118.8v13.2z"/><path d="M134.2 108.8l3.6 1.2c1.2.4 2.4.8 4 .8 1.2.4 2.8.4 4 .8h.8v10h12v-10.4h.8c1.6-.4 3.2-1.2 4.8-2s2.8-1.6 4-2.8c1.2-1.2 2.4-2.4 3.2-3.6.8-1.2 1.6-2.8 2.4-4 .8-1.6 1.2-3.2 1.6-4.8.4-1.6.4-3.2.4-4.8 0-1.2 0-2.8-.4-4-.4-1.2-.8-2.8-1.2-4-.4-1.2-1.2-2.4-2-3.2-.8-1.2-1.6-2-2.8-2.8-1.2-.8-2-2-3.2-2.8l-3.6-2.4c-1.2-.8-2.8-1.6-4-2-1.6-.8-2.8-1.2-4.4-1.6-.8-.4-1.6-.4-2.4-.8-.8-.4-1.6-.8-2-.8-.8-.4-1.2-.8-2-1.2-.4-.4-1.2-.8-1.6-1.6-.4-.4-.8-1.2-1.2-2-.4-.8-.4-1.6-.4-2.4v-2.4c0-.8.4-1.6.8-2 .4-.8.8-1.2 1.2-2 .4-.8 1.2-1.2 1.6-1.6l2.4-1.2c.8-.4 1.6-.4 2.8-.4h3.2c.8 0 1.6 0 2.8.4.8 0 2 .4 2.8.4s1.2.4 2 .4c.8.4 1.6.4 2 .4l2.8.8.4-2.8 1.2-8.4.4-2-2-.8c-.8-.4-1.2-.4-2-.4-.4 0-1.2-.4-2-.4s-1.6-.4-2.4-.4-1.6-.4-2.4-.4h-.8v-9.6h-12.8v10.4h-.8c-1.6.4-3.2 1.2-4.4 2-1.2.8-2.8 1.6-4 2.8-1.2 1.2-2.4 2.4-3.2 3.6s-1.6 2.8-2.4 4c-.8 1.6-1.2 3.2-1.6 4.8-.4 1.6-.4 3.2-.4 5.2 0 1.2 0 2.8.4 4 .4 1.2.8 2.8 1.2 4 .4 1.2 1.2 2.4 2 3.2.8 1.2 1.6 2 2.8 2.8s2.4 1.6 3.2 2.4c1.2.8 2.4 1.6 4 2.4 1.6.8 2.8 1.2 4.4 2 1.6.8 2.8 1.2 4.4 1.6.8.4 1.6.4 2 .8.8.4 1.2.8 2 1.2.8.4 1.2.8 1.6 1.2.4.4.8.8 1.2 1.6.4.4.8 1.2.8 2 .4.8.4 1.6.4 2.4V92c0 .8-.4 1.6-.8 2-.4.8-.8 1.2-1.6 1.6-.4.4-1.2.8-2 1.2-.8.4-1.2.8-2 .8-.8.4-1.6.4-2.4.4h-4c-.8 0-2 0-2.8-.4-.8 0-2-.4-2.8-.4-1.2-.4-2.4-.4-3.2-.8-1.2-.4-2.4-.8-3.2-1.2-.4 0-.8-.4-1.2-.4-.4-.4-.8-.4-1.2-.8l-3.2-1.6-.4 3.2-1.2 9.2-.4 1.6 1.6.8c2.4.4 3.6 1.2 4.8 1.6z"/></symbol><symbol viewBox="0 0 16 16" id="fb" xmlns="http://www.w3.org/2000/svg"><path d="M7.2 16V8.5h-2V5.8h2V3.5C7.2 1.7 8.4 0 11.1 0c1.1 0 1.9.1 1.9.1l-.1 2.5h-1.7c-1 0-1.1.4-1.1 1.2v2H13l-.1 2.7h-2.8V16H7.2z"/></symbol><symbol viewBox="0 0 430.117 430.117" id="linkedin" xmlns="http://www.w3.org/2000/svg"><path d="M430.117 261.543V420.56h-92.188V272.193c0-37.271-13.334-62.707-46.703-62.707-25.473 0-40.632 17.142-47.301 33.724-2.432 5.928-3.058 14.179-3.058 22.477V420.56h-92.219s1.242-251.285 0-277.32h92.21v39.309c-.187.294-.43.611-.606.896h.606v-.896c12.251-18.869 34.13-45.824 83.102-45.824 60.673-.001 106.157 39.636 106.157 124.818zM52.183 9.558C20.635 9.558 0 30.251 0 57.463c0 26.619 20.038 47.94 50.959 47.94h.616c32.159 0 52.159-21.317 52.159-47.94-.606-27.212-20-47.905-51.551-47.905zM5.477 420.56h92.184V143.24H5.477v277.32z"/></symbol><symbol viewBox="0 0 33 33" id="message" xmlns="http://www.w3.org/2000/svg"><path d="M7.282 32.706a.5.5 0 0 1-.5-.5v-7.124C2.405 22.806 0 18.821 0 13.828 0 6.112 7.093.294 16.5.294S33 6.112 33 13.828c0 7.715-7.093 13.533-16.5 13.533-.309 0-.612-.017-.916-.033l-.02-.001-8.007 5.296a.498.498 0 0 1-.275.083zM16.5 1.294C7.664 1.294 1 6.683 1 13.828c0 3.323 1.128 7.842 6.503 10.499a.5.5 0 0 1 .278.448v6.501l7.369-4.874a.456.456 0 0 1 .302-.082l.186.01c.286.016.571.031.861.031 8.836 0 15.5-5.388 15.5-12.533S25.336 1.294 16.5 1.294z"/></symbol><symbol viewBox="0 0 367.353 367.353" id="money" xmlns="http://www.w3.org/2000/svg"><path d="M337.2 323.276H12.8v-285.6c0-3.6-2.8-6.4-6.4-6.4-3.6 0-6.4 2.8-6.4 6.4v292c0 3.6 2.8 6.4 6.4 6.4h330.8c3.6 0 6.4-2.8 6.4-6.4 0-3.6-2.8-6.4-6.4-6.4z"/><path d="M365.2 150.876c-2.8-2.4-6.8-2-9.2.8l-41.2 46.8-28-24.8c-1.6-1.2-3.2-2-5.2-1.6-2 .4-3.6 1.6-4.4 3.2l-34.4 57.6-29.6-10c-2.4-.8-5.6 0-7.2 2l-28 36.8-30.8-19.2c-2.4-1.6-5.6-1.2-7.6.8l-40.4 36.4-41.2-10.8c-2.4-.4-4.8 0-6.4 1.6l-22.4 23.6c-2.4 2.4-2.4 6.8.4 9.2 1.2 1.2 2.8 1.6 4.4 1.6 1.6 0 3.2-.8 4.8-2l19.6-20.8 40.8 10.8c2 .4 4.4 0 6-1.6l39.2-35.6 31.6 19.6c2.8 1.6 6.4 1.2 8.4-1.6l28.8-37.6 30.4 10c2.8.8 6-.4 7.6-2.8l32.8-55.6 27.2 24c1.2 1.2 3.2 1.6 4.8 1.6 1.6 0 3.2-.8 4.4-2l45.2-52c2.4-2 2.4-6-.4-8.4zm-326.8 94.4c1.2 0 2-.4 3.2-.8l58-32.4 29.2 11.6c2.4.8 5.2.4 7.2-1.6l60.4-67.6 45.2 19.6c2.4 1.2 5.2.4 7.2-1.6l51.2-53.6 24 10.4c3.2 1.6 6.8 0 8.4-3.2l29.6-64.4c1.6-3.2 0-7.2-3.2-8.4-3.2-1.6-7.2 0-8.4 3.2l-26.8 58.8-22.4-10c-2.4-1.2-5.2-.4-7.2 1.6l-51.6 53.6-45.2-19.6c-2.4-1.2-5.6-.4-7.2 1.6l-60.4 67.6-28-10.8c-1.6-.8-3.6-.4-5.6.4l-60.8 34c-3.2 1.6-4.4 5.6-2.4 8.8 1.2 1.6 3.2 2.8 5.6 2.8zm57.2-104.4c28 0 51.2-22.8 51.2-51.2 0-28-22.8-51.2-51.2-51.2-28.4 0-51.2 22.8-51.2 51.2 0 28 23.2 51.2 51.2 51.2zm0-89.6c21.2 0 38.4 17.2 38.4 38.4s-17.2 38.4-38.4 38.4-38.4-17.2-38.4-38.4 17.2-38.4 38.4-38.4z"/><path d="M83.2 113.676c.8.4 1.6.4 2.4.8s1.6.4 2.8.8c.8 0 2 .4 2.8.4h.4v6.8h8v-6.8h.4c1.2-.4 2-.8 3.2-1.2.8-.4 2-1.2 2.8-2 .8-.8 1.6-1.6 2-2.4.8-.8 1.2-1.6 1.6-2.8.4-1.2.8-2 1.2-3.2.4-1.2.4-2 .4-3.2 0-.8 0-2-.4-2.8 0-.8-.4-1.6-.8-2.8l-1.2-2.4c-.4-.8-1.2-1.2-2-2s-1.6-1.2-2.4-2c-.8-.4-1.6-1.2-2.4-1.6-.8-.4-2-.8-2.8-1.2-.8-.4-2-.8-2.8-1.2-.4 0-.8-.4-1.6-.4-.4-.4-.8-.4-1.6-.8-.4-.4-.8-.4-1.2-.8-.4-.4-.8-.8-1.2-.8-.4-.4-.4-.8-.8-1.2 0-.4-.4-.8-.4-1.6v-1.6c0-.4.4-1.2.4-1.6 0-.4.4-.8.8-1.2l1.2-1.2c.4-.4.8-.4 1.6-.8.4 0 1.2-.4 2-.4h4c.8 0 1.2.4 2 .4.4 0 .8.4 1.2.4.4 0 .8.4 1.2.4l2 .8.4-2 .8-5.6v-1.2l-1.2-.4c-.4 0-.8-.4-1.2-.4-.4 0-.8-.4-1.2-.4-.4 0-1.2-.4-1.6-.4-.8 0-1.2-.4-1.6-.4h-.8v-6.4h-8v6.8h-.4c-1.2.4-2 .8-2.8 1.2-.8.4-1.6 1.2-2.4 2s-1.6 1.6-2 2.4c-.4.8-1.2 1.6-1.6 2.8-.4 1.2-.8 2-.8 3.2-.4 1.2-.4 2.4-.4 3.6 0 .8 0 2 .4 2.8 0 .8.4 2 .8 2.8.4.8.8 1.6 1.6 2.4.4.8 1.2 1.2 2 2s1.6 1.2 2.4 1.6c.8.4 1.6 1.2 2.4 1.6s2 .8 2.8 1.2c.8.4 2 .8 2.8 1.2.4 0 .8.4 1.6.4.4.4.8.4 1.2.8.4.4.8.4 1.2.8.4.4.8.8.8 1.2.4.4.4.8.8 1.2 0 .4.4 1.2.4 1.6v1.6c0 .4-.4.8-.4 1.2-.4.4-.4.8-.8 1.2-.4.4-.8.8-1.2.8-.4.4-.8.4-1.6.8-.4 0-1.2.4-1.6.4h-4.4c-.8 0-1.2 0-2-.4-.8 0-1.6-.4-2.4-.4-.8-.4-1.6-.4-2-.8-.4 0-.8-.4-.8-.4-1.6-.8-1.6-1.2-2-1.2l-2-1.2-.4 2.4-.8 6v1.2l1.2.4c.8.4 1.2.8 2 1.2z"/></symbol><symbol viewBox="0 0 321.6 321.6" id="money-bag" xmlns="http://www.w3.org/2000/svg"><path d="M278.791 283.2c-1.2-4.8-2-17.6-2.4-29.2-2-50.8-5.6-151.6-86-170.4.8-1.2 1.2-2.4 1.2-3.6 0-3.2-2.4-6-6-6.4 13.2-12.8 25.2-33.6 30.4-60.4.8-3.2 0-6-2-8.4-3.6-4.4-10.4-4.8-16-4.8-8.4 0-20 1.6-32.4 3.2-13.6 2-28 3.6-39.2 3.6-6 0-10.4-.4-13.6-1.6-2-.8-4-.4-5.6.8-1.6 1.2-2.8 3.2-2.8 5.2 0 22.4 14 47.2 29.6 62.4-2.8.8-4.8 3.2-4.8 6 0 1.6.4 2.8 1.6 4-79.6 20-83.2 119.6-85.2 170.4-.4 11.6-.8 24.8-2.4 29.2-8 1.2-14 8-14 16.4v5.2c0 9.2 7.6 16.8 16.8 16.8h229.6c9.2 0 16.8-7.6 16.8-16.8v-5.2c.4-8-5.6-15.2-13.6-16.4zm-160.4-264c12.4 1.2 31.6-1.2 49.2-3.6 12-1.6 22.8-3.2 30.8-3.2 2.4 0 4 0 5.2.4-7.6 34-26.4 54.8-38.8 60.4h-9.2c-13.2-6-33.6-30.4-37.2-54zm161.6 286c0 2-1.6 4-4 4h-229.6c-2 0-4-1.6-4-4V300c0-2 1.6-4 4-4 11.2 0 11.6-14 12.4-41.6 2-56.4 6-161.6 102.4-161.6s100.4 105.2 102.4 161.6c1.2 27.6 1.6 41.6 12.4 41.6 2 0 4 1.6 4 4v5.2z"/><path d="M183.991 214.8c-.8-1.2-1.2-2.4-2-3.6s-2-2-2.8-3.2c-1.2-1.2-2.4-2-3.6-2.8s-2.4-1.6-4-2.4c-1.6-.8-2.8-1.6-4.4-2-1.6-.8-3.2-1.2-4.4-2-.8-.4-1.6-.4-2.4-.8l-2.4-1.2c-.8-.4-1.2-.8-2-1.2l-1.6-1.6c-.4-.8-.8-1.2-1.2-2-.4-.8-.4-1.6-.8-2.4v-2.4c0-.8.4-1.6.8-2.4.4-.8.8-1.6 1.2-2 .4-.8 1.2-1.2 2-1.6l2.4-1.2c.8-.4 2-.4 2.8-.4h3.6c.8 0 2 0 2.8.4.8 0 2 .4 2.8.4s1.6.4 2 .4c.8.4 1.6.4 2 .8l2.8.8.4-3.2 1.2-8.8.4-2-2-.8c-.8-.4-1.6-.4-2-.4-.4 0-1.2-.4-2-.4-.8-.4-1.6-.4-2.4-.4s-2-.4-2.8-.4h-.8v-10.4h-12.4v10.8l-.8.4c-1.6.4-3.2 1.2-4.8 2-1.6.8-2.8 1.6-4 2.8-1.2 1.2-2.4 2.4-3.2 3.6s-1.6 2.8-2.4 4.4c-.8 1.6-1.2 3.2-1.6 4.8-.4 1.6-.4 3.6-.4 5.6 0 1.6 0 2.8.4 4.4.4 1.6.8 2.8 1.6 4.4l2.4 3.6c.8 1.2 2 2 2.8 3.2 1.2.8 2.4 2 3.6 2.8 1.2.8 2.8 1.6 4 2.4 1.6.8 3.2 1.6 4.4 2 1.6.8 3.2 1.2 4.8 2 .8.4 1.6.4 2.4.8.8.4 1.6.8 2 1.2.8.4 1.2.8 2 1.2l1.6 1.6c.4.8.8 1.2 1.2 2s.4 1.6.4 2.4v2.4c0 .8-.4 1.6-.8 2.4-.4.8-.8 1.2-1.6 2-.4.4-1.2 1.2-2 1.6-.8.4-1.6.8-2.4.8-.8.4-1.6.4-2.4.4h-4c-.8 0-2 0-2.8-.4-.8 0-2-.4-2.8-.4-1.2-.4-2.4-.4-3.6-.8l-3.6-1.2c-.4 0-.8-.4-1.6-.8-.4-.4-.8-.4-1.6-.8l-3.2-1.6-.4 3.6-1.2 9.6-.4 2 1.6.8c1.2.4 2.4 1.2 3.6 1.6 1.2.4 2.4.8 4 1.2 1.2.4 2.8.8 4 1.2 1.6.4 2.8.4 4.4.8h.8v10.4h12V248h.8c1.6-.4 3.6-1.2 5.2-2s2.8-1.6 4.4-2.8l3.6-3.6c.8-1.2 2-2.8 2.4-4.4.8-1.6 1.2-3.2 1.6-5.2.4-1.6.4-3.6.4-5.2 0-3.2-.4-4.8-.4-6-.4-1.6-.8-2.8-1.6-4z"/></symbol><symbol viewBox="0 0 512 512" id="search" xmlns="http://www.w3.org/2000/svg"><path d="M495 466.2L377.2 348.4c29.2-35.6 46.8-81.2 46.8-130.9C424 103.5 331.5 11 217.5 11 103.4 11 11 103.5 11 217.5S103.4 424 217.5 424c49.7 0 95.2-17.5 130.8-46.7L466.1 495c8 8 20.9 8 28.9 0 8-7.9 8-20.9 0-28.8zm-277.5-83.3C126.2 382.9 52 308.7 52 217.5S126.2 52 217.5 52C308.7 52 383 126.3 383 217.5s-74.3 165.4-165.5 165.4z"/></symbol><symbol viewBox="0 0 512 512" id="skype" xmlns="http://www.w3.org/2000/svg"><path d="M487.654 288.97c1.406-10.4 2.215-20.973 2.215-31.736 0-129.153-105.27-233.872-235.102-233.872-12.904 0-25.555 1.06-37.866 3.08-22.072-14.384-48.342-22.767-76.612-22.767C62.766 3.675 0 66.483 0 143.981c0 28.198 8.299 54.394 22.59 76.389a232.862 232.862 0 0 0-2.909 36.859c0 129.176 105.217 233.882 235.085 233.882 14.657 0 28.927-1.429 42.796-3.935 21.549 13.369 46.934 21.148 74.145 21.148C449.211 508.327 512 445.503 512 368.013c-.004-29.293-8.961-56.528-24.346-79.043zM276.74 429.597c-74.705 3.894-109.664-12.637-141.689-42.691-35.765-33.565-21.398-71.854 7.74-73.801 29.122-1.942 46.607 33.015 62.15 42.736 15.524 9.688 74.594 31.76 105.793-3.908 33.977-38.828-22.594-58.92-64.06-65.002-59.203-8.766-133.95-40.792-128.135-103.907 5.816-63.074 53.582-95.414 103.85-99.976 64.077-5.817 105.792 9.707 138.786 37.86 38.148 32.529 17.508 68.894-6.799 71.82-24.213 2.909-51.404-53.504-104.792-54.352-55.027-.864-92.217 57.261-24.286 73.784 67.967 16.505 140.75 23.286 166.961 85.417 26.231 62.137-40.751 128.125-115.519 132.02z"/></symbol><symbol viewBox="0 0 612 612" id="twitter" xmlns="http://www.w3.org/2000/svg"><path d="M612 116.258a250.714 250.714 0 0 1-72.088 19.772c25.929-15.527 45.777-40.155 55.184-69.411-24.322 14.379-51.169 24.82-79.775 30.48-22.907-24.437-55.49-39.658-91.63-39.658-69.334 0-125.551 56.217-125.551 125.513 0 9.828 1.109 19.427 3.251 28.606-104.326-5.24-196.835-55.223-258.75-131.174-10.823 18.51-16.98 40.078-16.98 63.101 0 43.559 22.181 81.993 55.835 104.479a125.556 125.556 0 0 1-56.867-15.756v1.568c0 60.806 43.291 111.554 100.693 123.104-10.517 2.83-21.607 4.398-33.08 4.398-8.107 0-15.947-.803-23.634-2.333 15.985 49.907 62.336 86.199 117.253 87.194-42.947 33.654-97.099 53.655-155.916 53.655-10.134 0-20.116-.612-29.944-1.721 55.567 35.681 121.536 56.485 192.438 56.485 230.948 0 357.188-191.291 357.188-357.188l-.421-16.253c24.666-17.593 46.005-39.697 62.794-64.861z"/></symbol></svg>